# xmcd
#
# Track frame offsets:
#	150
#	14247
#	28307
#	44382
#	56239
#	75997
#	96475
#	112892
#	131485
#	142225
#	160435
#
# Disc length: 2363 seconds
#
# Revision: 2
# Processed by: cddbd v1.5.2PL0 Copyright (c) Steve Scherf et al.
# Submitted via: EasyCDDAExtractor 11.1.0.1
#
DISCID=a009390b
DTITLE=Kenny Brown - Stingray
DYEAR=2003
DGENRE=Blues
TTITLE0=If Down Was Up
TTITLE1=Miss Maybelle
TTITLE2=All I Want
TTITLE3=Cocaine Bill
TTITLE4=France Chance
TTITLE5=Goin' Down South
TTITLE6=You Don't Know My Mind
TTITLE7=Shake 'Em On Down
TTITLE8=Lonesome Katy Blues
TTITLE9=Brought You To The City
TTITLE10=Fare Thee Well Blues
EXTD=
EXTT0=
EXTT1=
EXTT2=
EXTT3=
EXTT4=
EXTT5=
EXTT6=
EXTT7=
EXTT8=
EXTT9=
EXTT10=
PLAYORDER=
